<svg width="15" height="11" viewBox="0 0 15 11" fill="none" xmlns="http://www.w3.org/2000/svg">
<path fill-rule="evenodd" clip-rule="evenodd" d="M7.126 6.60049C6.059 6.60049 5.169 7.32549 4.922 8.29949L7.23 10.5685L9.366 8.46849C9.186 7.40949 8.255 6.60049 7.126 6.60049Z" fill="white"/>
<path fill-rule="evenodd" clip-rule="evenodd" d="M7.12599 3.39011C5.17099 3.39011 3.45599 4.38711 2.46899 5.88911L3.89299 7.28711C4.47999 6.10811 5.69999 5.29011 7.12599 5.29011C8.60599 5.29011 9.87599 6.16711 10.434 7.42011L11.862 6.01611C10.89 4.44411 9.13499 3.39011 7.12599 3.39011Z" fill="white"/>
<path opacity="0.5" fill-rule="evenodd" clip-rule="evenodd" d="M7.126 0C4.221 0 1.644 1.36 0 3.462L1.432 4.869C2.698 3.119 4.774 1.973 7.126 1.973C9.531 1.973 11.652 3.168 12.909 4.986L14.342 3.579C12.702 1.411 10.085 0 7.126 0Z" fill="white"/>
</svg>
