<svg width="25" height="11" viewBox="0 0 25 11" fill="none" xmlns="http://www.w3.org/2000/svg">
<path fill-rule="evenodd" clip-rule="evenodd" d="M12.4717 9H3.52869C2.68469 9 1.99969 8.316 1.99969 7.472V3.528C1.99969 2.685 2.68469 2 3.52869 2H12.4717C13.3157 2 13.9997 2.685 13.9997 3.528V7.472C13.9997 8.316 13.3157 9 12.4717 9Z" fill="white"/>
<path opacity="0.5" fill-rule="evenodd" clip-rule="evenodd" d="M21 8.415C21 9.29 20.29 10 19.415 10H2.585C1.71 10 1 9.29 1 8.415V2.585C1 1.71 1.71 1 2.585 1H19.415C20.29 1 21 1.71 21 2.585V8.415ZM19.745 0H2.255C1.01 0 0 1.01 0 2.255V8.745C0 9.99 1.01 11 2.255 11H19.745C20.99 11 22 9.99 22 8.745V2.255C22 1.01 20.99 0 19.745 0Z" fill="white"/>
<path opacity="0.5" fill-rule="evenodd" clip-rule="evenodd" d="M22.75 7.5V3.5C23.578 3.5 24.25 4.172 24.25 5V6C24.25 6.829 23.578 7.5 22.75 7.5Z" fill="white"/>
</svg>
