<svg width="17" height="11" viewBox="0 0 17 11" fill="none" xmlns="http://www.w3.org/2000/svg">
<path opacity="0.5" fill-rule="evenodd" clip-rule="evenodd" d="M14.9322 0H15.8512C16.4852 0 16.9992 0.515 16.9992 1.149V9.419C16.9992 10.053 16.4852 10.568 15.8512 10.568H14.9322C14.2972 10.568 13.7842 10.053 13.7842 9.419V1.149C13.7842 0.515 14.2972 0 14.9322 0Z" fill="white"/>
<path fill-rule="evenodd" clip-rule="evenodd" d="M10.3375 2.2973H11.2565C11.8915 2.2973 12.4045 2.8113 12.4045 3.4463V9.4193C12.4045 10.0533 11.8915 10.5683 11.2565 10.5683H10.3375C9.7025 10.5683 9.1895 10.0533 9.1895 9.4193V3.4463C9.1895 2.8113 9.7025 2.2973 10.3375 2.2973Z" fill="white"/>
<path fill-rule="evenodd" clip-rule="evenodd" d="M5.7428 4.5947H6.6618C7.2968 4.5947 7.8098 5.1087 7.8098 5.7427V9.4187C7.8098 10.0527 7.2968 10.5677 6.6618 10.5677H5.7428C5.1078 10.5677 4.5948 10.0527 4.5948 9.4187V5.7427C4.5948 5.1087 5.1078 4.5947 5.7428 4.5947Z" fill="white"/>
<path fill-rule="evenodd" clip-rule="evenodd" d="M1.148 5.97311H2.067C2.702 5.97311 3.215 6.48711 3.215 7.12111V9.41911C3.215 10.0531 2.702 10.5681 2.067 10.5681H1.148C0.514 10.5681 0 10.0531 0 9.41911V7.12111C0 6.48711 0.514 5.97311 1.148 5.97311Z" fill="white"/>
</svg>
