<svg width="37" height="37" viewBox="0 0 37 37" fill="none" xmlns="http://www.w3.org/2000/svg">
<g filter="url(#filter0_d_399_2877)">
<path fill-rule="evenodd" clip-rule="evenodd" d="M33 14.5C33 22.5084 26.5078 29 18.5004 29C10.4922 29 4 22.5084 4 14.5C4 6.49163 10.4922 0 18.5004 0C26.5078 0 33 6.49163 33 14.5Z" fill="#E4E3E6"/>
<path fill-rule="evenodd" clip-rule="evenodd" d="M20.028 14.5002L24.6834 9.8456C25.1055 9.4234 25.1055 8.73885 24.6834 8.31665C24.2612 7.89445 23.5766 7.89445 23.1553 8.31665L18.5 12.9721L13.8447 8.31665C13.4225 7.89445 12.7388 7.89445 12.3166 8.31665C11.8945 8.73885 11.8945 9.4234 12.3166 9.8456L16.972 14.5002L12.3166 19.1557C11.8945 19.5779 11.8945 20.2616 12.3166 20.6838C12.5277 20.8949 12.8048 21 13.0811 21C13.3573 21 13.6336 20.8949 13.8447 20.6838L18.5 16.0283L23.1553 20.6838C23.3664 20.8949 23.6427 21 23.9189 21C24.1952 21 24.4723 20.8949 24.6834 20.6838C25.1055 20.2616 25.1055 19.5779 24.6834 19.1557L20.028 14.5002Z" fill="#7E7F83"/>
</g>
<defs>
<filter id="filter0_d_399_2877" x="0" y="0" width="37" height="37" filterUnits="userSpaceOnUse" color-interpolation-filters="sRGB">
<feFlood flood-opacity="0" result="BackgroundImageFix"/>
<feColorMatrix in="SourceAlpha" type="matrix" values="0 0 0 0 0 0 0 0 0 0 0 0 0 0 0 0 0 0 127 0" result="hardAlpha"/>
<feOffset dy="4"/>
<feGaussianBlur stdDeviation="2"/>
<feComposite in2="hardAlpha" operator="out"/>
<feColorMatrix type="matrix" values="0 0 0 0 0 0 0 0 0 0 0 0 0 0 0 0 0 0 0.25 0"/>
<feBlend mode="normal" in2="BackgroundImageFix" result="effect1_dropShadow_399_2877"/>
<feBlend mode="normal" in="SourceGraphic" in2="effect1_dropShadow_399_2877" result="shape"/>
</filter>
</defs>
</svg>
