<svg width="15" height="11" viewBox="0 0 15 11" fill="none" xmlns="http://www.w3.org/2000/svg">
<path fill-rule="evenodd" clip-rule="evenodd" d="M7.12612 6.60059C6.05912 6.60059 5.16912 7.32559 4.92212 8.29959L7.23012 10.5686L9.36612 8.46859C9.18612 7.40959 8.25512 6.60059 7.12612 6.60059Z" fill="white"/>
<path fill-rule="evenodd" clip-rule="evenodd" d="M7.12599 3.39014C5.17099 3.39014 3.45599 4.38714 2.46899 5.88914L3.89299 7.28714C4.47999 6.10814 5.69999 5.29014 7.12599 5.29014C8.60599 5.29014 9.87599 6.16714 10.434 7.42014L11.862 6.01614C10.89 4.44414 9.13499 3.39014 7.12599 3.39014Z" fill="white"/>
<path opacity="0.5" fill-rule="evenodd" clip-rule="evenodd" d="M7.126 0C4.221 0 1.644 1.36 0 3.462L1.432 4.869C2.698 3.119 4.774 1.973 7.126 1.973C9.531 1.973 11.652 3.168 12.909 4.986L14.342 3.579C12.702 1.411 10.085 0 7.126 0Z" fill="white"/>
</svg>
