<svg width="17" height="11" viewBox="0 0 17 11" fill="none" xmlns="http://www.w3.org/2000/svg">
<path opacity="0.5" fill-rule="evenodd" clip-rule="evenodd" d="M14.9322 0H15.8512C16.4852 0 16.9992 0.515 16.9992 1.149V9.419C16.9992 10.053 16.4852 10.568 15.8512 10.568H14.9322C14.2972 10.568 13.7842 10.053 13.7842 9.419V1.149C13.7842 0.515 14.2972 0 14.9322 0Z" fill="white"/>
<path fill-rule="evenodd" clip-rule="evenodd" d="M10.3375 2.29724H11.2565C11.8915 2.29724 12.4045 2.81124 12.4045 3.44624V9.41924C12.4045 10.0532 11.8915 10.5682 11.2565 10.5682H10.3375C9.70251 10.5682 9.18951 10.0532 9.18951 9.41924V3.44624C9.18951 2.81124 9.70251 2.29724 10.3375 2.29724Z" fill="white"/>
<path fill-rule="evenodd" clip-rule="evenodd" d="M5.74279 4.59473H6.66179C7.29679 4.59473 7.80979 5.10873 7.80979 5.74273V9.41873C7.80979 10.0527 7.29679 10.5677 6.66179 10.5677H5.74279C5.10779 10.5677 4.59479 10.0527 4.59479 9.41873V5.74273C4.59479 5.10873 5.10779 4.59473 5.74279 4.59473Z" fill="white"/>
<path fill-rule="evenodd" clip-rule="evenodd" d="M1.148 5.97314H2.067C2.702 5.97314 3.215 6.48714 3.215 7.12114V9.41914C3.215 10.0531 2.702 10.5681 2.067 10.5681H1.148C0.514 10.5681 0 10.0531 0 9.41914V7.12114C0 6.48714 0.514 5.97314 1.148 5.97314Z" fill="white"/>
</svg>
