<svg width="28" height="27" viewBox="0 0 28 27" fill="none" xmlns="http://www.w3.org/2000/svg">
<g clip-path="url(#clip0_340_2520)" filter="url(#filter0_d_340_2520)">
<path d="M18.7499 0.999993C17.755 0.997543 16.78 1.27836 15.9388 1.80962C15.0977 2.34087 14.4251 3.1006 13.9999 3.99999C13.4982 2.90973 12.6376 2.02469 11.5618 1.49282C10.4859 0.960957 9.26012 0.814504 8.08927 1.07795C6.91842 1.34139 5.87348 1.99876 5.12913 2.94016C4.38479 3.88156 3.98615 5.04995 3.99985 6.24999C3.99985 11.75 13.9999 19 13.9999 19C13.9999 19 23.9999 11.75 23.9999 6.24999C23.9999 4.85761 23.4467 3.52225 22.4622 2.53768C21.4776 1.55312 20.1422 0.999993 18.7499 0.999993Z" fill="white"/>
</g>
<defs>
<filter id="filter0_d_340_2520" x="0" y="0" width="28" height="28" filterUnits="userSpaceOnUse" color-interpolation-filters="sRGB">
<feFlood flood-opacity="0" result="BackgroundImageFix"/>
<feColorMatrix in="SourceAlpha" type="matrix" values="0 0 0 0 0 0 0 0 0 0 0 0 0 0 0 0 0 0 127 0" result="hardAlpha"/>
<feOffset dy="4"/>
<feGaussianBlur stdDeviation="2"/>
<feComposite in2="hardAlpha" operator="out"/>
<feColorMatrix type="matrix" values="0 0 0 0 0 0 0 0 0 0 0 0 0 0 0 0 0 0 0.25 0"/>
<feBlend mode="normal" in2="BackgroundImageFix" result="effect1_dropShadow_340_2520"/>
<feBlend mode="normal" in="SourceGraphic" in2="effect1_dropShadow_340_2520" result="shape"/>
</filter>
<clipPath id="clip0_340_2520">
<rect width="20" height="20" fill="white" transform="translate(4)"/>
</clipPath>
</defs>
</svg>
