<svg width="28" height="27" viewBox="0 0 28 27" fill="none" xmlns="http://www.w3.org/2000/svg">
<g clip-path="url(#clip0_340_2530)" filter="url(#filter0_d_340_2530)">
<path d="M18.7499 1C17.755 0.997549 16.78 1.27837 15.9388 1.80962C15.0977 2.34088 14.4251 3.10061 13.9999 4C13.4982 2.90973 12.6376 2.02469 11.5618 1.49283C10.4859 0.960963 9.26012 0.81451 8.08927 1.07795C6.91842 1.34139 5.87348 1.99876 5.12913 2.94017C4.38479 3.88157 3.98615 5.04996 3.99985 6.25C3.99985 11.75 13.9999 19 13.9999 19C13.9999 19 23.9999 11.75 23.9999 6.25C23.9999 4.85761 23.4467 3.52225 22.4622 2.53769C21.4776 1.55312 20.1422 1 18.7499 1Z" fill="white"/>
</g>
<defs>
<filter id="filter0_d_340_2530" x="0" y="0" width="28" height="28" filterUnits="userSpaceOnUse" color-interpolation-filters="sRGB">
<feFlood flood-opacity="0" result="BackgroundImageFix"/>
<feColorMatrix in="SourceAlpha" type="matrix" values="0 0 0 0 0 0 0 0 0 0 0 0 0 0 0 0 0 0 127 0" result="hardAlpha"/>
<feOffset dy="4"/>
<feGaussianBlur stdDeviation="2"/>
<feComposite in2="hardAlpha" operator="out"/>
<feColorMatrix type="matrix" values="0 0 0 0 0 0 0 0 0 0 0 0 0 0 0 0 0 0 0.25 0"/>
<feBlend mode="normal" in2="BackgroundImageFix" result="effect1_dropShadow_340_2530"/>
<feBlend mode="normal" in="SourceGraphic" in2="effect1_dropShadow_340_2530" result="shape"/>
</filter>
<clipPath id="clip0_340_2530">
<rect width="20" height="20" fill="white" transform="translate(4)"/>
</clipPath>
</defs>
</svg>
